<svg width="182" height="36" viewBox="0 0 182 36" fill="none" xmlns="http://www.w3.org/2000/svg">
<path fill-rule="evenodd" clip-rule="evenodd" d="M0 35.0628V26.7874V8.87806H13.2662C19.1254 8.87806 22.7736 12.3052 22.7736 17.8327C22.6631 23.3603 19.0149 26.7874 13.2662 26.7874H5.81642L0.0169479 35.0628H0ZM28.5206 26.9403V18.665V0.755615H15.2544C9.39514 0.755615 5.74694 4.18271 5.74694 9.71029C5.85749 15.2379 9.50569 18.665 15.2544 18.665H22.7042L28.5036 26.9403H28.5206Z" fill="#484078"/>
<path d="M49.3169 6.94897H40.1191V28.8152H43.7635V20.5286H49.3602C53.3083 20.5286 56.3453 17.8821 56.3453 13.7605C56.3019 9.59549 53.3951 6.94897 49.3169 6.94897ZM48.9698 17.2747H45.7802L43.7635 20.5318V17.2747V10.2463H48.9698C51.2692 10.2463 52.7009 11.5912 52.7009 13.7605C52.6575 15.9298 51.2258 17.2747 48.9698 17.2747Z" fill="#484078"/>
<path d="M62.3333 6.94904H58.9492V28.8153H62.3333V6.94904Z" fill="#484078"/>
<path d="M78.5596 15.6695H78.2559C77.3014 14.2812 75.7395 12.9796 72.9195 12.9796C69.145 12.9796 65.8477 16.1034 65.8477 21.0927C65.8477 26.1254 69.145 29.2492 72.9195 29.2492C75.7829 29.2492 77.3448 27.9476 78.2559 26.5159H78.5596V28.8153H81.9437V13.4135H78.5596V15.6695ZM73.9174 26.299C71.2275 26.299 69.2751 24.39 69.2751 21.0927C69.2751 17.8388 71.2275 15.8864 73.9174 15.8864C76.6073 15.8864 78.5596 17.8388 78.5596 21.0927C78.5596 24.3466 76.6073 26.299 73.9174 26.299Z" fill="#484078"/>
<path d="M94.6552 13.1531C91.705 13.1531 90.36 14.4546 89.6659 15.7996H89.3622V13.4134H86.0215V28.8152H89.4055V20.9191C89.4055 17.7519 91.0542 15.9731 93.6139 15.9731C95.9134 15.9731 97.2583 17.1879 97.2583 19.7911V28.8152H100.686V19.5741C100.686 15.626 98.1694 13.1531 94.6552 13.1531Z" fill="#484078"/>
<path d="M111.922 26.299C109.449 26.299 107.627 24.5635 107.497 22.2207H119.168V20.8324C119.168 16.1034 116.174 12.9796 111.705 12.9796C107.193 12.9796 103.939 16.2769 103.939 21.0493C103.939 25.9085 107.107 29.2492 111.792 29.2492C115.61 29.2492 117.476 27.2534 118.474 25.6916L115.523 24.39C114.916 25.4312 113.831 26.299 111.922 26.299ZM111.705 15.9298C114.005 15.9298 115.523 17.3182 115.697 19.5742H107.54C107.844 17.3615 109.363 15.9298 111.705 15.9298Z" fill="#484078"/>
<path d="M127.887 6.94904H124.46V11.9817H120.295V14.7584H124.46V25.6482C124.46 27.6005 125.718 28.8153 127.584 28.8153H131.922V25.9953H128.755C128.191 25.9953 127.887 25.6916 127.887 25.0408V14.715H132.399V11.9384H127.887V6.94904Z" fill="#484078"/>
<path d="M146.89 15.6695H146.586C145.631 14.2812 144.07 12.9796 141.25 12.9796C137.475 12.9796 134.178 16.1034 134.178 21.0927C134.178 26.1254 137.475 29.2492 141.25 29.2492C144.113 29.2492 145.675 27.9476 146.586 26.5159H146.89V28.8153H150.274V13.4135H146.89V15.6695ZM142.204 26.299C139.514 26.299 137.562 24.39 137.562 21.0927C137.562 17.8388 139.514 15.8864 142.204 15.8864C144.894 15.8864 146.846 17.8388 146.846 21.0927C146.846 24.3466 144.894 26.299 142.204 26.299Z" fill="#484078"/>
<path d="M157.955 15.5394H157.651V13.4135H154.311V28.8153H157.695V19.7044C157.695 17.3616 159.17 16.2769 161.209 16.2769H163.595V13.3701H161.816C159.82 13.3701 158.562 13.9341 157.955 15.5394Z" fill="#484078"/>
<path d="M177.824 13.4135L173.485 27.6439H173.138L168.756 13.4135H165.068L170.101 28.8153H173.008L170.752 35.0628H174.44L181.555 13.4135H177.824Z" fill="#484078"/>
</svg>
